<?xml version="1.0" encoding="UTF-8" standalone="no"?>
<!DOCTYPE svg PUBLIC "-//W3C//DTD SVG 1.1//EN" "http://www.w3.org/Graphics/SVG/1.1/DTD/svg11.dtd">
<svg width="425.20" height="425.20" viewBox="0.00 0.00 425.00 425.00" xmlns="http://www.w3.org/2000/svg" xmlns:xlink="http://www.w3.org/1999/xlink">
<g stroke-linecap="round" id="Layer_8">
<path d="M269.09,210.98 L269.09,100.00 L423.64,100.00 L423.64,316.97 L269.09,316.97 L269.09,231.53" fill="none" stroke="rgb(41, 83, 169)" stroke-width="6.00" stroke-opacity="1.00" stroke-linejoin="miter"/>
<path d="M100.10,106.44 C100.31,106.39 100.43,106.35 100.46,106.31 C100.59,106.15 102.29,101.18 103.83,98.50 C107.14,92.78 117.61,81.31 122.28,77.56 C125.93,74.65 135.59,69.76 142.03,67.84 C148.09,66.06 163.22,64.84 167.06,65.61 C167.38,65.68 167.68,65.81 167.94,65.99" fill="none" stroke="rgb(0, 0, 0)" stroke-width="5.00" stroke-opacity="1.00" stroke-linejoin="round"/>
<path d="M99.95,106.42 C99.88,106.47 100.06,106.59 101.38,107.37 C106.79,110.53 114.84,112.91 124.82,115.10 C132.04,116.80 146.34,120.12 154.19,121.33 C158.37,121.93 173.81,123.10 181.76,123.64 C191.11,124.06 218.82,124.22 222.60,123.59 C223.24,123.48 223.76,123.27 223.80,123.22" fill="none" stroke="rgb(0, 0, 0)" stroke-width="5.00" stroke-opacity="1.00" stroke-linejoin="round"/>
<path d="M173.02,62.73 C173.02,62.73 173.16,62.67 173.16,62.67 C173.17,62.65 170.69,62.34 169.10,64.30 C168.73,64.79 168.73,65.70 169.16,66.22 C170.07,67.23 174.74,68.74 176.62,68.80 C178.54,68.84 180.42,67.49 180.66,66.60 C181.11,63.49 173.78,63.32 172.46,63.47 C171.90,63.53 170.76,63.70 170.64,63.72 C170.59,63.72 170.56,63.72 170.53,63.72" fill="none" stroke="rgb(0, 0, 0)" stroke-width="5.00" stroke-opacity="1.00" stroke-linejoin="round"/>
<path d="M180.49,66.86 C181.35,66.85 181.88,66.85 182.10,66.87 C184.54,67.07 195.29,74.43 201.08,80.08 C204.64,83.59 211.24,91.86 213.68,95.89 C217.23,101.83 220.78,117.34 221.53,120.98 C221.55,121.04 221.59,121.26 221.67,121.64 C221.67,121.64 221.68,121.64 221.68,121.64" fill="none" stroke="rgb(0, 0, 0)" stroke-width="5.00" stroke-opacity="1.00" stroke-linejoin="round"/>
<path d="M225.73,121.30 C226.02,121.51 226.60,121.77 228.51,122.49 C232.45,123.98 236.28,126.02 237.56,126.93 C239.68,128.50 241.89,131.97 241.31,133.40 C240.72,134.66 236.82,135.82 234.14,136.05 C231.45,136.26 227.71,136.32 226.61,136.34 C225.90,136.35 225.43,136.39 225.43,136.41" fill="none" stroke="rgb(0, 0, 0)" stroke-width="5.00" stroke-opacity="1.00" stroke-linejoin="round"/>
<path d="M102.66,108.76 C103.33,109.25 104.66,110.49 105.60,111.37 C108.76,114.20 119.10,119.44 125.85,121.82 C132.39,124.00 148.63,128.78 154.41,130.11 C161.71,131.78 173.33,133.60 184.92,134.57 C193.01,135.18 207.20,136.17 213.30,136.54 C223.13,136.98 234.90,137.07 234.82,137.07" fill="none" stroke="rgb(0, 0, 0)" stroke-width="5.00" stroke-opacity="1.00" stroke-linejoin="round"/>
<path d="M220.99,138.67 C220.99,138.67 220.78,138.82 220.78,138.82 C221.02,140.48 221.16,141.78 221.23,143.04 C221.53,148.43 221.34,158.10 220.54,163.64 C219.73,169.22 217.01,181.64 215.34,186.76 C213.01,193.66 207.78,209.84 206.99,212.97 C205.50,218.99 203.87,232.11 203.82,238.00 C203.80,243.01 206.04,275.48 206.73,288.60 C206.93,293.10 206.75,298.62 206.30,302.96 C205.97,306.11 205.42,311.44 205.41,311.95 C205.41,311.95 205.41,311.97 205.41,311.96" fill="none" stroke="rgb(0, 0, 0)" stroke-width="5.00" stroke-opacity="1.00" stroke-linejoin="round"/>
<path d="M100.65,107.38 C100.65,107.38 100.76,107.48 100.76,107.48" fill="none" stroke="rgb(0, 0, 0)" stroke-width="5.00" stroke-opacity="1.00" stroke-linejoin="round"/>
<path d="M214.88,191.37 C214.75,191.34 214.68,191.32 214.67,191.32 C214.63,191.32 214.72,191.36 214.75,191.37" fill="none" stroke="rgb(0, 0, 0)" stroke-width="5.00" stroke-opacity="1.00" stroke-linejoin="round"/>
<path d="M205.53,232.75 C205.53,232.75 205.59,234.61 205.59,234.61" fill="none" stroke="rgb(0, 0, 0)" stroke-width="5.00" stroke-opacity="1.00" stroke-linejoin="round"/>
<path d="M204.59,237.14 C204.59,237.14 204.52,237.55 204.52,237.55" fill="none" stroke="rgb(0, 0, 0)" stroke-width="5.00" stroke-opacity="1.00" stroke-linejoin="round"/>
<path d="M222.59,200.56 C226.46,203.98 236.88,209.10 242.01,210.73 C245.14,211.71 266.00,214.54 267.89,214.75 C271.30,215.12 272.82,216.01 273.41,217.32 C274.13,219.06 273.44,222.94 271.78,225.41 C268.50,230.18 261.36,234.82 259.99,235.68 C259.29,236.13 256.91,237.81 256.76,237.96 C256.68,238.04 256.64,238.13 256.65,238.24" fill="none" stroke="rgb(0, 0, 0)" stroke-width="5.00" stroke-opacity="1.00" stroke-linejoin="round"/>
<path d="M259.58,236.40 C259.57,236.46 259.40,236.49 259.33,236.50 C258.57,236.68 257.05,238.44 255.99,240.95 C254.45,244.65 245.78,275.31 244.68,277.38 C243.76,279.06 242.72,280.11 241.88,280.13 C240.16,280.10 237.36,279.01 237.18,278.90 C237.03,278.81 236.82,278.63 236.54,278.35" fill="none" stroke="rgb(0, 0, 0)" stroke-width="5.00" stroke-opacity="1.00" stroke-linejoin="round"/>
<path d="M206.26,257.66 C206.26,257.66 206.13,257.57 206.13,257.57 C206.76,259.32 207.18,260.61 207.51,261.94 C208.32,265.08 209.45,267.29 210.41,267.56 C211.45,267.68 212.73,266.06 215.37,260.72 C216.93,257.53 218.92,255.18 219.71,255.16 C221.36,255.42 227.91,265.19 230.32,269.95 C233.83,276.84 238.09,280.55 238.87,280.95 C239.43,281.23 240.29,281.59 241.45,282.02 C241.71,282.11 241.86,282.15 241.89,282.14" fill="none" stroke="rgb(0, 0, 0)" stroke-width="5.00" stroke-opacity="1.00" stroke-linejoin="round"/>
<path d="M9.04,295.21 C9.04,295.21 9.13,295.17 9.13,295.17" fill="none" stroke="rgb(0, 0, 0)" stroke-width="5.00" stroke-opacity="1.00" stroke-linejoin="round"/>
<path d="M12.18,295.84 C12.31,295.97 14.17,298.34 14.82,301.30 C15.06,302.42 15.92,307.11 16.16,308.07 C16.99,311.27 19.76,314.74 21.24,315.22 C23.81,315.95 32.29,314.83 34.28,314.86 C35.90,314.89 40.79,315.56 43.11,316.23 C45.62,317.01 51.02,320.08 54.62,323.30 C55.81,324.39 61.45,332.08 61.95,332.70 C64.43,335.75 69.23,339.07 73.46,340.79 C76.11,341.84 81.15,342.98 83.76,343.12 C86.92,343.25 93.08,341.66 95.87,340.13 C96.73,339.64 104.87,334.14 105.86,333.52 C108.56,331.84 114.00,329.42 116.59,328.83 C119.15,328.27 124.84,328.32 127.38,328.91 C131.46,329.90 146.36,337.61 149.15,338.89 C156.19,342.11 166.87,344.54 169.77,344.08 C171.93,343.70 174.28,342.86 175.42,341.95 C177.23,340.44 180.01,335.10 181.12,331.61 C182.00,328.89 184.20,322.21 185.63,320.08 C187.27,317.69 192.31,313.59 195.25,312.30 C198.29,311.03 202.14,310.86 204.25,310.99 C204.52,311.01 205.85,311.22 205.89,311.25" fill="none" stroke="rgb(0, 0, 0)" stroke-width="5.00" stroke-opacity="1.00" stroke-linejoin="round"/>
<path d="M133.74,167.22 C134.08,167.42 134.33,167.58 134.49,167.71 C135.53,168.49 136.59,169.02 137.56,169.06 C139.59,169.12 143.94,165.59 145.45,162.97 C146.66,160.80 148.83,154.79 149.39,152.11 C149.86,149.74 149.88,139.28 148.86,136.96 C148.01,135.12 145.51,133.54 143.78,133.51 C141.75,133.56 138.33,136.64 136.50,139.03 C135.36,140.56 133.51,145.44 132.83,148.46 C132.14,151.67 131.87,156.94 132.29,159.79 C133.08,164.88 134.94,167.15 135.26,167.27 C135.42,167.32 135.58,167.36 135.74,167.41" fill="none" stroke="rgb(0, 0, 0)" stroke-width="5.00" stroke-opacity="1.00" stroke-linejoin="round"/>
<path d="M186.44,165.56 C186.73,165.56 187.30,168.75 187.42,169.39 C187.68,170.60 188.75,172.43 189.69,173.06 C190.65,173.68 193.06,174.16 194.31,173.99 C195.71,173.75 197.75,172.50 198.84,171.21 C200.21,169.52 203.15,162.59 203.66,160.78 C204.22,158.79 205.06,153.46 205.02,151.02 C204.98,148.57 204.60,145.82 203.83,144.06 C202.78,141.77 201.39,140.24 199.41,139.72 C197.67,139.33 194.74,140.41 192.93,142.47 C190.95,144.79 188.59,150.00 187.73,153.63 C187.05,156.60 186.83,163.18 187.25,166.02 C187.62,168.48 188.70,170.25 188.93,170.44 C189.00,170.49 189.27,170.67 189.74,170.98" fill="none" stroke="rgb(0, 0, 0)" stroke-width="5.00" stroke-opacity="1.00" stroke-linejoin="round"/>
<path d="M222.86,120.78 C222.86,120.78 222.68,120.76 222.68,120.76 C223.02,120.81 224.19,121.29 224.68,121.44 C224.88,121.50 226.97,122.01 227.10,122.07" fill="none" stroke="rgb(0, 0, 0)" stroke-width="5.00" stroke-opacity="1.00" stroke-linejoin="round"/>
<path d="M156.24,186.16 C156.24,186.26 156.30,186.39 156.70,186.91 C157.72,188.17 159.58,189.83 160.83,190.25 C163.39,191.07 167.92,189.53 169.01,188.63 C169.15,188.51 169.37,188.29 169.66,187.98" fill="none" stroke="rgb(0, 0, 0)" stroke-width="5.00" stroke-opacity="1.00" stroke-linejoin="round"/>
<path d="M123.55,163.85 C123.52,163.86 123.51,163.85 123.51,163.82 C123.51,163.81 123.49,163.82 123.48,163.83 C123.36,164.49 123.31,165.01 123.33,165.39 C123.49,168.01 126.17,171.71 127.82,172.44 C128.47,172.71 129.24,172.82 129.86,172.80" fill="none" stroke="rgb(0, 0, 0)" stroke-width="5.00" stroke-opacity="1.00" stroke-linejoin="round"/>
<path d="M207.32,172.35 C207.36,172.33 207.44,172.30 207.45,172.28 C207.45,172.27 207.45,172.30 207.45,172.31 C207.10,173.71 206.74,174.83 206.31,175.60 C205.85,176.38 204.65,177.84 204.01,178.30 C203.29,178.81 201.47,179.52 200.58,179.71 C200.18,179.79 199.49,179.85 199.24,179.86" fill="none" stroke="rgb(0, 0, 0)" stroke-width="5.00" stroke-opacity="1.00" stroke-linejoin="round"/>
<path d="M191.17,85.87 C191.06,86.34 190.99,86.69 190.97,86.92 C190.85,88.02 190.49,108.13 189.96,112.52 C189.91,112.93 189.81,113.52 189.68,114.28 C189.68,114.28 189.67,114.28 189.67,114.28" fill="none" stroke="rgb(0, 0, 0)" stroke-width="5.00" stroke-opacity="1.00" stroke-linejoin="round"/>
<path d="M189.15,113.36" fill="none" stroke="rgb(0, 0, 0)" stroke-width="5.00" stroke-opacity="1.00" stroke-linejoin="round"/>
<path d="M189.24,113.32 C189.24,113.32 189.30,113.20 189.30,113.20 C188.63,113.38 186.71,113.91 186.07,114.03 C181.33,114.93 167.62,114.31 163.37,112.62 C162.89,112.43 162.26,112.09 161.47,111.61 C161.46,111.61 161.46,111.60 161.46,111.60" fill="none" stroke="rgb(0, 0, 0)" stroke-width="5.00" stroke-opacity="1.00" stroke-linejoin="round"/>
<path d="M190.61,85.49 C190.61,85.41 190.51,85.39 189.92,85.45 C186.96,85.74 181.84,86.01 178.56,86.01 C175.46,86.00 167.29,85.39 166.58,85.24 C165.35,84.97 163.16,84.25 163.19,84.26 C163.19,84.26 163.31,84.10 163.31,84.10" fill="none" stroke="rgb(0, 0, 0)" stroke-width="5.00" stroke-opacity="1.00" stroke-linejoin="round"/>
<path d="M161.83,85.29 C161.62,85.53 161.55,86.08 161.61,87.59 C161.85,94.54 160.70,109.24 160.83,110.46 C160.95,111.62 161.17,112.65 161.26,112.64 C161.26,112.64 161.64,112.26 161.64,112.26" fill="none" stroke="rgb(0, 0, 0)" stroke-width="5.00" stroke-opacity="1.00" stroke-linejoin="round"/>
<path d="M162.14,85.42 C162.29,85.50 162.45,85.52 162.80,85.45 C163.90,85.22 164.75,85.39 164.92,85.44" fill="none" stroke="rgb(0, 0, 0)" stroke-width="5.00" stroke-opacity="1.00" stroke-linejoin="round"/>
<path d="M167.36,90.15 C167.39,90.02 167.28,92.07 167.14,94.14 C167.04,95.62 166.93,97.17 166.94,97.15 C167.10,95.01 167.12,92.70 167.18,91.93 C167.29,90.86 167.99,90.10 168.82,90.19 C170.63,90.47 171.62,91.62 171.54,92.55 C171.49,92.96 170.87,93.56 169.40,94.74 C170.65,94.88 172.58,95.80 172.62,96.51 C172.62,98.73 167.43,98.44 167.25,98.63 C167.23,98.66 167.19,98.70 167.14,98.74" fill="none" stroke="rgb(0, 0, 0)" stroke-width="5.00" stroke-opacity="1.00" stroke-linejoin="round"/>
<path d="M181.91,91.11 C181.91,91.11 181.90,91.03 181.90,91.03 C181.40,90.88 180.40,90.76 179.87,90.94 C178.37,91.47 176.98,94.53 177.35,95.61 C177.73,96.54 179.44,97.48 180.71,97.45 C184.83,97.16 183.33,92.12 182.92,91.71 C182.66,91.46 182.27,91.20 181.75,90.93 C181.73,90.92 181.70,90.97 181.71,90.98" fill="none" stroke="rgb(0, 0, 0)" stroke-width="5.00" stroke-opacity="1.00" stroke-linejoin="round"/>
<path d="M184.02,89.54 C183.94,89.58 183.87,89.63 183.81,89.69 C183.23,90.24 178.20,96.86 177.52,97.64 C176.96,98.28 176.81,98.26 176.81,98.19" fill="none" stroke="rgb(0, 0, 0)" stroke-width="5.00" stroke-opacity="1.00" stroke-linejoin="round"/>
<path d="M169.23,103.51 C169.22,104.10 169.22,104.61 169.21,105.02 C169.13,108.41 168.96,109.64 168.96,109.61 C168.98,107.91 169.20,104.97 169.36,103.00 C169.38,102.34 168.03,102.40 166.93,102.42 C166.93,102.42 172.60,102.45 172.60,102.45" fill="none" stroke="rgb(0, 0, 0)" stroke-width="5.00" stroke-opacity="1.00" stroke-linejoin="round"/>
<path d="M166.49,109.69 C166.40,109.83 166.44,109.91 166.61,109.93 C167.42,110.04 170.90,110.08 171.57,109.87" fill="none" stroke="rgb(0, 0, 0)" stroke-width="5.00" stroke-opacity="1.00" stroke-linejoin="round"/>
<path d="M177.93,102.61 C177.88,102.64 177.86,102.62 177.85,102.54 C177.84,102.53 177.80,102.52 177.80,102.53 C177.63,105.35 177.39,109.05 177.33,109.93 C177.31,110.22 177.30,110.37 177.31,110.38 C177.31,110.38 177.32,110.33 177.34,110.22" fill="none" stroke="rgb(0, 0, 0)" stroke-width="5.00" stroke-opacity="1.00" stroke-linejoin="round"/>
<path d="M177.68,101.55 C177.68,101.55 177.53,101.48 177.53,101.48 C179.23,101.42 180.44,101.56 180.92,102.03 C181.40,102.52 181.71,103.98 181.46,104.61 C181.20,105.22 180.22,105.91 179.19,106.42 C181.33,106.64 183.64,107.32 183.34,108.70 C183.00,109.96 180.27,111.04 179.57,111.08 C178.98,111.10 178.43,111.05 177.94,110.92 C177.75,110.86 177.99,110.73 177.98,110.73" fill="none" stroke="rgb(0, 0, 0)" stroke-width="5.00" stroke-opacity="1.00" stroke-linejoin="round"/>
<path d="M205.46,311.83 C205.52,311.81 205.53,311.83 205.61,311.66 C206.13,310.46 206.45,309.33 206.51,308.03 C206.56,307.03 206.55,306.02 206.61,305.02 C206.66,304.20 207.03,302.47 207.20,301.99 C207.26,301.83 207.38,301.58 207.55,301.25" fill="none" stroke="rgb(0, 0, 0)" stroke-width="5.00" stroke-opacity="1.00" stroke-linejoin="round"/>
<path d="M222.70,201.24 C222.75,201.12 222.60,201.01 222.52,200.96 C221.70,200.39 219.34,197.80 218.49,196.85 C217.21,195.46 214.82,192.84 214.63,192.53 C214.54,192.37 214.94,192.72 215.08,192.84 C215.16,192.91 215.24,192.99 215.31,193.06" fill="none" stroke="rgb(0, 0, 0)" stroke-width="6.00" stroke-opacity="1.00" stroke-linejoin="round"/>
<path d="M100.36,106.42 C100.48,106.74 100.25,107.95 99.68,109.72 C97.50,116.02 93.05,129.70 92.05,134.83 C91.68,136.75 88.95,153.41 87.13,160.01 C86.09,163.72 82.65,174.07 82.24,175.28" fill="none" stroke="rgb(0, 0, 0)" stroke-width="6.00" stroke-opacity="1.00" stroke-linejoin="round"/>
<path d="M91.55,189.62 C91.78,189.83 91.98,190.08 92.14,190.37 C93.28,192.70 95.90,197.72 97.56,200.29 C101.86,206.88 110.41,214.90 115.33,218.42 C121.12,222.41 132.84,230.75 135.60,234.63 C136.48,235.94 136.90,238.16 136.49,239.33 C135.45,241.89 130.39,245.08 127.35,246.04 C124.78,246.81 120.71,247.70 118.15,248.07 C116.72,248.28 112.08,248.78 112.18,248.84" fill="none" stroke="rgb(0, 0, 0)" stroke-width="6.00" stroke-opacity="1.00" stroke-linejoin="round"/>
<path d="M115.92,248.37 C115.92,248.37 115.85,248.38 115.85,248.38 C114.68,248.72 113.93,248.97 113.59,249.10 C110.34,250.48 102.12,262.12 99.45,267.10 C97.73,270.38 94.68,276.35 93.35,279.06" fill="none" stroke="rgb(0, 0, 0)" stroke-width="6.00" stroke-opacity="1.00" stroke-linejoin="round"/>
<path d="M84.40,278.16 C83.23,275.64 80.20,270.73 78.06,269.01 C77.17,268.30 69.65,264.60 68.19,262.76 C66.81,260.94 65.70,256.79 65.19,253.07 C64.69,248.84 63.94,245.30 63.12,243.93 C62.01,242.16 60.09,240.49 58.34,239.83 C57.00,239.37 54.20,238.35 53.33,237.70 C52.37,236.95 51.34,234.80 51.27,233.42 C51.21,230.92 53.29,226.39 56.46,220.66 C59.98,214.13 67.02,200.75 70.53,193.89 C75.43,184.07 77.33,180.58 79.38,177.19" fill="none" stroke="rgb(0, 0, 0)" stroke-width="6.00" stroke-opacity="1.00" stroke-linejoin="round"/>
<path d="M92.83,278.74 C92.84,278.77 92.85,278.77 92.86,278.76 C92.90,278.75 92.90,278.77 92.88,278.84 C92.70,279.29 91.77,281.17 91.33,281.74 C90.65,282.60 88.52,283.96 87.86,283.78 C87.37,283.63 86.00,281.71 85.44,280.79 C84.21,278.67 82.86,275.40 82.64,274.79 C82.50,274.37 82.35,273.74 82.36,273.74" fill="none" stroke="rgb(0, 0, 0)" stroke-width="6.00" stroke-opacity="1.00" stroke-linejoin="round"/>
<path d="M80.45,175.78 C80.49,175.75 80.44,175.86 80.42,175.89 C79.97,176.65 78.87,178.54 78.03,180.12 C77.77,180.61 76.18,183.76 75.92,184.30 C75.32,185.56 74.01,188.58 73.40,189.99" fill="none" stroke="rgb(0, 0, 0)" stroke-width="6.00" stroke-opacity="1.00" stroke-linejoin="round"/>
<path d="M50.79,235.38 C50.79,235.38 51.06,235.02 51.06,235.02 C50.12,236.71 48.57,239.51 48.22,240.06 C47.02,241.96 12.35,291.82 11.16,293.50 C10.20,294.85 9.73,295.54 9.70,295.77 C9.69,295.85 9.73,296.00 9.83,296.20" fill="none" stroke="rgb(0, 0, 0)" stroke-width="6.00" stroke-opacity="1.00" stroke-linejoin="round"/>
<path d="M167.30,66.62 C168.06,66.44 168.52,66.34 168.70,66.30 C168.88,66.27 169.01,66.27 169.10,66.29 C166.77,66.62 165.37,66.86 164.23,67.15 C159.32,68.44 147.07,73.78 142.67,76.82 C138.70,79.61 131.25,87.60 127.82,92.77 C125.82,95.82 122.44,102.43 121.53,104.57 C120.91,106.08 120.15,107.87 120.15,107.87" fill="none" stroke="rgb(0, 0, 0)" stroke-width="3.00" stroke-opacity="1.00" stroke-linejoin="round"/>
<path d="M179.71,67.91 C179.97,67.56 180.44,67.60 181.31,68.10 C181.43,68.17 181.59,68.27 181.80,68.41" fill="none" stroke="rgb(0, 0, 0)" stroke-width="3.00" stroke-opacity="1.00" stroke-linejoin="round"/>
<path d="M174.91,68.48 C175.28,71.36 175.41,72.97 175.40,74.92 C175.37,80.01 175.26,83.05 175.17,85.25 C175.17,85.38 175.17,85.53 175.17,85.70 C175.17,85.70 175.19,85.65 175.19,85.65" fill="none" stroke="rgb(0, 0, 0)" stroke-width="3.00" stroke-opacity="1.00" stroke-linejoin="round"/>
<path d="M174.25,114.88 C174.25,114.88 174.16,114.85 174.16,114.85 C174.39,116.16 174.53,117.36 174.57,118.54 C174.59,119.02 174.59,120.03 174.59,120.23" fill="none" stroke="rgb(0, 0, 0)" stroke-width="3.00" stroke-opacity="1.00" stroke-linejoin="round"/>
<path d="M204.44,86.62 C204.44,86.62 204.44,86.68 204.44,86.68 C204.61,87.17 204.78,87.57 204.96,87.87 C209.21,95.22 212.49,102.71 213.96,109.55 C214.31,111.22 214.78,114.03 214.95,115.44 C215.09,116.66 215.24,118.08 215.24,118.08" fill="none" stroke="rgb(0, 0, 0)" stroke-width="3.00" stroke-opacity="1.00" stroke-linejoin="round"/>
<path d="M290.11,123.02 C289.98,125.95 289.77,131.84 289.87,134.66 C291.07,166.50 290.07,194.37 290.06,195.14 C290.03,197.02 290.00,199.14 290.00,199.08" fill="none" stroke="rgb(0, 0, 0)" stroke-width="11.17" stroke-opacity="1.00" stroke-linejoin="round"/>
<path d="M288.07,125.98 C292.50,125.03 307.67,124.75 310.74,125.13 C313.11,125.45 316.97,126.44 319.19,127.35 C321.75,128.47 326.70,132.99 327.80,136.33 C328.29,137.97 328.36,141.25 327.94,142.93 C327.50,144.52 325.78,147.61 324.58,149.01 C322.14,151.77 315.95,155.47 312.21,156.82 C309.72,157.69 302.97,158.81 300.50,159.06 C298.10,159.29 295.08,159.51 294.99,159.55" fill="none" stroke="rgb(0, 0, 0)" stroke-width="11.17" stroke-opacity="1.00" stroke-linejoin="round"/>
<path d="M293.23,158.54 C295.82,158.45 310.09,159.26 313.00,159.90 C316.12,160.61 321.57,163.41 323.85,165.62 C326.26,168.05 329.38,174.34 329.96,177.26 C330.26,178.92 330.14,182.42 329.70,184.03 C328.79,187.17 324.09,192.97 320.92,194.82 C318.20,196.35 310.13,198.41 306.87,198.74 C302.28,199.20 293.03,199.27 290.70,199.08 C290.36,199.05 289.87,199.00 289.21,198.93" fill="none" stroke="rgb(0, 0, 0)" stroke-width="11.17" stroke-opacity="1.00" stroke-linejoin="round"/>
<path d="M375.91,123.65 C375.91,123.65 376.35,123.73 376.35,123.73 C374.27,123.99 372.75,124.29 371.04,124.86 C367.73,125.99 362.04,128.96 359.44,131.16 C356.84,133.40 352.77,138.95 351.17,142.36 C349.61,145.75 347.57,153.15 347.12,157.14 C346.71,161.07 347.05,168.37 347.71,171.69 C348.34,174.72 350.44,180.01 351.72,182.48 C353.10,185.08 356.71,189.56 358.96,191.48 C361.29,193.41 366.58,196.01 369.52,196.90 C372.34,197.72 378.00,198.59 380.84,198.34 C384.01,198.03 390.55,195.55 393.59,193.44 C396.60,191.29 401.46,185.61 403.16,182.31 C404.77,179.13 406.68,172.75 407.11,170.32 C407.61,167.47 408.00,160.72 407.77,157.52 C407.49,154.16 406.51,148.91 405.55,145.67 C404.68,142.78 401.75,136.74 399.82,134.19 C398.03,131.87 393.83,128.32 391.43,127.10 C389.15,125.97 384.09,124.50 381.61,124.19 C379.59,123.95 374.37,124.15 371.62,125.27 C369.64,126.09 365.83,128.98 365.34,129.39 C365.19,129.51 365.05,129.65 364.94,129.78" fill="none" stroke="rgb(0, 0, 0)" stroke-width="11.17" stroke-opacity="1.00" stroke-linejoin="round"/>
<path d="M346.00,203.72 C348.62,200.33 352.29,195.40 353.92,192.92 C360.98,182.07 374.95,160.12 381.88,149.00 C387.59,140.16 406.42,114.39 407.13,113.75 C407.18,113.71 407.35,113.56 407.64,113.32" fill="none" stroke="rgb(0, 0, 0)" stroke-width="8.38" stroke-opacity="1.00" stroke-linejoin="round"/>
<path d="M320.55,227.16 C320.60,227.16 320.65,227.16 320.70,227.16 C320.77,227.16 320.83,227.16 320.90,227.16 C320.90,230.74 319.31,290.13 319.44,296.61 C319.46,297.18 319.48,297.74 319.50,298.31" fill="none" stroke="rgb(0, 0, 0)" stroke-width="11.17" stroke-opacity="1.00" stroke-linejoin="round"/>
<path d="M307.15,227.12 C312.19,227.97 324.70,227.50 331.21,228.00 C331.96,228.05 332.72,228.10 333.47,228.15" fill="none" stroke="rgb(0, 0, 0)" stroke-width="11.17" stroke-opacity="1.00" stroke-linejoin="round"/>
<path d="M307.04,298.45 C307.34,298.38 307.62,298.35 307.87,298.33 C310.67,298.20 326.28,299.15 330.93,298.37 C331.22,298.32 331.58,298.26 331.99,298.20" fill="none" stroke="rgb(0, 0, 0)" stroke-width="11.17" stroke-opacity="1.00" stroke-linejoin="round"/>
<path d="M352.93,223.52 C352.80,226.46 352.59,232.35 352.69,235.17 C353.88,267.01 352.89,294.88 352.87,295.65 C352.85,297.53 352.82,299.65 352.82,299.59" fill="none" stroke="rgb(0, 0, 0)" stroke-width="11.17" stroke-opacity="1.00" stroke-linejoin="round"/>
<path d="M350.88,226.49 C355.31,225.54 370.49,225.26 373.56,225.64 C375.93,225.96 379.79,226.95 382.01,227.86 C384.57,228.98 389.51,233.50 390.62,236.84 C391.11,238.48 391.18,241.76 390.76,243.44 C390.31,245.03 388.60,248.12 387.40,249.52 C384.96,252.28 378.76,255.98 375.02,257.33 C372.53,258.20 365.79,259.32 363.32,259.57 C360.92,259.80 357.90,260.02 357.81,260.06" fill="none" stroke="rgb(0, 0, 0)" stroke-width="11.17" stroke-opacity="1.00" stroke-linejoin="round"/>
<path d="M356.05,259.05 C358.64,258.96 372.91,259.77 375.82,260.40 C378.94,261.12 384.39,263.92 386.66,266.13 C389.08,268.55 392.20,274.85 392.78,277.77 C393.07,279.43 392.96,282.92 392.52,284.54 C391.60,287.68 386.91,293.48 383.73,295.33 C381.02,296.86 372.95,298.91 369.69,299.25 C365.10,299.71 355.85,299.77 353.52,299.59 C353.18,299.56 352.68,299.51 352.03,299.44" fill="none" stroke="rgb(0, 0, 0)" stroke-width="11.17" stroke-opacity="1.00" stroke-linejoin="round"/>
<path d="M200.29,188.91 C200.29,188.91 200.62,189.10 200.62,189.10 C200.96,188.84 201.26,188.59 201.52,188.37 C201.92,188.02 205.51,184.80 205.80,184.55 C205.88,184.48 206.09,184.29 206.05,184.38" fill="none" stroke="rgb(239, 115, 172)" stroke-width="3.00" stroke-opacity="1.00" stroke-linejoin="round"/>
<path d="M204.70,188.64 C204.70,188.64 204.59,188.77 204.59,188.77 C204.97,188.75 205.64,188.30 207.21,186.93 C208.27,186.02 208.95,185.42 209.26,185.13 C209.56,184.85 210.04,184.38 210.71,183.72" fill="none" stroke="rgb(239, 115, 172)" stroke-width="3.00" stroke-opacity="1.00" stroke-linejoin="round"/>
<path d="M128.23,182.39 C128.23,182.39 127.68,182.76 127.68,182.76 C127.88,182.51 128.52,181.98 130.24,180.62 C131.39,179.71 132.06,179.15 132.26,178.93 C132.46,178.72 132.58,178.46 132.64,178.13" fill="none" stroke="rgb(239, 115, 172)" stroke-width="3.00" stroke-opacity="1.00" stroke-linejoin="round"/>
<path d="M124.06,183.05 C124.94,182.33 127.36,180.33 127.91,179.82 C128.60,179.18 129.26,178.53 129.88,177.85 C129.92,177.80 129.99,177.66 129.95,177.69" fill="none" stroke="rgb(239, 115, 172)" stroke-width="3.00" stroke-opacity="1.00" stroke-linejoin="round"/>
<path d="M119.53,182.17 C120.09,182.44 120.55,182.46 121.19,181.97 C121.54,181.68 125.10,178.61 125.55,178.08 C125.87,177.71 126.35,177.00 127.00,175.96" fill="none" stroke="rgb(239, 115, 172)" stroke-width="3.00" stroke-opacity="1.00" stroke-linejoin="round"/>
</g>
</svg>
